<svg xmlns="http://www.w3.org/2000/svg" xmlns:xlink="http://www.w3.org/1999/xlink" width="21" height="21" viewBox="0 0 21 21"><defs><style>.a,.b,.d{fill:#fff;}.a{stroke:#707070;}.b{opacity:0;}.c{clip-path:url(#a);}.e,.f{stroke:none;}.f{fill:#1d2027;}</style><clipPath id="a"><path class="a" d="M0,0H18.578V16.046H0Z" transform="translate(0)"/></clipPath></defs><circle class="b" cx="10.5" cy="10.5" r="10.5"/><g class="c" transform="translate(1.211 3.318)"><g class="d" transform="translate(-1.688 3.562) rotate(-30)"><path class="e" d="M 3.608810663223267 15.69187831878662 C 3.309059619903564 14.87955188751221 2.985839605331421 14.05514812469482 2.673017501831055 13.2572603225708 C 2.026307344436646 11.60775089263916 1.415457487106323 10.04972076416016 0.983277440071106 8.564720153808594 C 0.2233374565839767 5.953960418701172 0.2045074552297592 4.235310554504395 0.9222274422645569 2.992120504379272 C 1.688907504081726 1.664340615272522 2.762547492980957 0.8068705797195435 4.027047634124756 0.51244056224823 C 4.347767353057861 0.4378405511379242 4.68175745010376 0.4000005722045898 5.019647598266602 0.4000005722045898 C 5.915907382965088 0.4000005722045898 6.850737571716309 0.6662105321884155 7.723077297210693 1.169850587844849 C 8.687487602233887 1.7267005443573 9.361007690429688 2.792370557785034 9.782107353210449 4.427730560302734 L 9.883917808532715 4.823120594024658 L 10.27712726593018 4.713230609893799 C 10.99295711517334 4.513170719146729 11.65278720855713 4.411740779876709 12.23829746246338 4.411740779876709 C 12.96798706054688 4.411740779876709 13.60982704162598 4.568660736083984 14.14598751068115 4.878140449523926 C 15.33768749237061 5.566360473632812 16.18981742858887 6.583050727844238 16.54533767700195 7.740870475769043 C 16.93067741394043 8.99586009979248 16.73110771179199 10.35758018493652 15.96817779541016 11.67883014678955 C 15.25153732299805 12.92014026641846 13.74850749969482 13.75985050201416 11.09468746185303 14.40157032012939 C 9.591187477111816 14.76514053344727 7.93745756149292 15.01665019989014 6.186627388000488 15.28292083740234 C 5.338747501373291 15.4118709564209 4.462642669677734 15.5451135635376 3.608810663223267 15.69187831878662 Z"/><path class="f" d="M 5.01950740814209 9.5367431640625e-07 L 5.01950740814209 0.8000001907348633 C 4.712177276611328 0.8000001907348633 4.408727645874023 0.8343400955200195 4.117757797241211 0.9020204544067383 C 2.963787078857422 1.170710563659668 1.978567123413086 1.962630271911621 1.268637657165527 3.192111015319824 C 0.6099567413330078 4.333050727844238 0.6403980255126953 5.955540657043457 1.367337226867676 8.452950477600098 C 1.794467926025391 9.920560836791992 2.402097702026367 11.47041034698486 3.045417785644531 13.11125087738037 C 3.31916332244873 13.80947017669678 3.600857734680176 14.52796363830566 3.868362426757812 15.24220561981201 C 4.621024131774902 15.11643028259277 5.384511947631836 15.00031471252441 6.126477241516113 14.88747024536133 C 7.868527412414551 14.62253093719482 9.513967514038086 14.37229061126709 11.00066757202148 14.012770652771 C 13.53921699523926 13.39893054962158 14.96440696716309 12.61744022369385 15.62177753448486 11.47881126403809 C 16.32770729064941 10.25627040863037 16.51484680175781 9.004310607910156 16.1629581451416 7.858290672302246 C 15.83248710632324 6.78203010559082 15.06582736968994 5.871270179748535 13.9460277557373 5.224570274353027 C 13.4714469909668 4.950640678405762 12.89688682556152 4.811740875244141 12.23829746246338 4.811740875244141 C 11.68917751312256 4.811740875244141 11.06556701660156 4.908210754394531 10.38479804992676 5.098470687866211 L 9.598358154296875 5.318260192871094 L 9.394737243652344 4.527480125427246 C 9.001827239990234 3.001570701599121 8.38958740234375 2.016590118408203 7.523077011108398 1.516260147094727 C 6.711507797241211 1.047700881958008 5.845827102661133 0.8000307083129883 5.019627571105957 0.8000001907348633 L 5.01950740814209 9.5367431640625e-07 M 5.019649505615234 9.5367431640625e-07 C 6.000449180603027 3.337860107421875e-05 6.998912811279297 0.2898797988891602 7.923077583312988 0.8234405517578125 L 7.923137664794922 0.8234405517578125 C 9.223457336425781 1.574280738830566 9.835317611694336 3.030290603637695 10.16946792602539 4.327990531921387 C 10.81299591064453 4.148141860961914 11.52488708496094 4.011736869812012 12.23829650878906 4.011736869812012 C 12.96294116973877 4.011736869812012 13.68914604187012 4.152586936950684 14.34595775604248 4.531710624694824 C 15.61272716522217 5.263290405273438 16.53347778320312 6.339540481567383 16.9277172088623 7.62346076965332 C 17.32194709777832 8.907390594482422 17.17652702331543 10.38611030578613 16.31457710266113 11.87885093688965 C 15.41078758239746 13.44431114196777 13.48349761962891 14.23546028137207 11.18869781494141 14.79036045074463 C 8.894027709960938 15.34526062011719 6.191337585449219 15.65141010284424 3.617807388305664 16.09623146057129 C 3.602578163146973 16.09854316711426 3.587255477905273 16.09966278076172 3.571940422058105 16.09966278076172 C 3.436914443969727 16.09966278076172 3.30325984954834 16.01247215270996 3.253997802734375 15.88587093353271 C 2.351997375488281 13.43423080444336 1.258777618408203 10.94279098510742 0.5992069244384766 8.67650032043457 C -0.06042289733886719 6.410340309143066 -0.3186721801757812 4.341510772705078 0.5758075714111328 2.792130470275879 C 1.428177833557129 1.315960884094238 2.625877380371094 0.4279909133911133 3.936337471008301 0.1228609085083008 C 4.291918754577637 0.04014873504638672 4.654488563537598 -1.1444091796875e-05 5.019649505615234 9.5367431640625e-07 Z"/></g></g></svg>