<svg xmlns="http://www.w3.org/2000/svg" xmlns:xlink="http://www.w3.org/1999/xlink" width="52.189" height="37.068" viewBox="0 0 52.189 37.068"><defs><style>.a{fill:none;}.b,.e{fill:#af6d04;}.c{clip-path:url(#a);}.d,.e{fill-rule:evenodd;}</style><clipPath id="a"><rect class="a" width="52.083" height="37.068"/></clipPath></defs><g transform="translate(-32.666 -509.958)"><path class="b" d="M56.721,636.059v-.054H56.4c-.185,0-.24-.1-.153-.261l1.316-2.545H60.2l1.2,2.534c.076.174.011.272-.174.272h-.055v.054h1.272v-.054h-.087a.467.467,0,0,1-.435-.272L59.1,629.818l-3.175,6.025a.362.362,0,0,1-.3.163h-.087v.054Zm-4.828-6.339h.043l.293-.675a.563.563,0,0,1,.609-.359h1.392v6.938a.36.36,0,0,1-.38.381h-.174v.054h1.728v-.054h-.174a.36.36,0,0,1-.38-.381v-6.938h6.285a.579.579,0,0,1,.609.359l.294.675h.043l-.174-1.272H52.067Zm7.047.794,1.206,2.544H57.613Zm0,0" transform="translate(-15.268 -94.093)"/><path class="b" d="M104.883,628.5a.36.36,0,0,1,.38.381v6.741a.36.36,0,0,1-.38.381h-.174v.054h1.838v-.054h-.283a.36.36,0,0,1-.38-.381v-3.773h4.6v3.773a.36.36,0,0,1-.38.381h-.283v.054h1.838v-.054h-.174a.36.36,0,0,1-.38-.381v-6.741a.36.36,0,0,1,.38-.381h.174v-.054h-1.838v.054h.283a.36.36,0,0,1,.38.381v2.75h-4.6v-2.75a.36.36,0,0,1,.38-.381h.283v-.054h-1.838v.054Zm0,0" transform="translate(-57.21 -94.093)"/><path class="b" d="M138.986,635.165v.054h1.49v-.054h-.4c-.229,0-.3-.142-.207-.338l1.663-3.186h3.306l1.5,3.175c.1.207.01.348-.218.348h-.065v.054h1.6v-.054h-.12a.615.615,0,0,1-.544-.348l-3.523-7.427-3.991,7.547a.449.449,0,0,1-.38.229Zm4.273-6.851,1.5,3.164h-3.153Zm0,0" transform="translate(-84.43 -93.252)"/><path class="b" d="M181.869,636.059h1.512c1.239,0,2.87-.446,2.87-2.1a1.883,1.883,0,0,1-.13-3.752c0-.989-.914-1.761-2.49-1.761h-1.762v.054h.175a.36.36,0,0,1,.38.381v6.741a.36.36,0,0,1-.38.381h-.175Zm1.175-.141v-3.806c1.761.011,2.468.914,2.468,1.892,0,1.642-1.087,1.913-2.251,1.913Zm.391-7.373a1.817,1.817,0,0,1,1.947,1.849,1.556,1.556,0,0,1-1.707,1.621h-.631v-3.47Zm0,0" transform="translate(-118.484 -94.093)"/><g transform="translate(32.773 509.958)"><g class="c" transform="translate(0 0)"><path class="b" d="M209.83,635.531a4.463,4.463,0,0,0,2.229-.6,3.931,3.931,0,0,0,2.121.6,4.4,4.4,0,0,0,4.426-4.328,3.586,3.586,0,0,0-3.774-3.654,4.336,4.336,0,0,0-2.208.587,3.946,3.946,0,0,0-2.142-.587,4.345,4.345,0,0,0-4.372,4.349,3.553,3.553,0,0,0,3.719,3.632Zm4.426-4.328a3.514,3.514,0,0,0-1.413-2.915,3.431,3.431,0,0,1,1.544-.359,3.867,3.867,0,0,1,3.816,3.8,3.452,3.452,0,0,1-3.479,3.436,3.714,3.714,0,0,1-2.066-.641,4.268,4.268,0,0,0,1.6-3.317Zm-7.655.185a3.407,3.407,0,0,1,3.436-3.458,3.684,3.684,0,0,1,2.023.6,4.358,4.358,0,0,0-1.6,3.371,3.541,3.541,0,0,0,1.424,2.925,3.494,3.494,0,0,1-1.512.337,3.817,3.817,0,0,1-3.773-3.773Zm7.253.337a3.438,3.438,0,0,1-1.326,2.707,3.765,3.765,0,0,1-1.577-3.044,3.447,3.447,0,0,1,1.3-2.73,3.863,3.863,0,0,1,1.6,3.067Zm0,0" transform="translate(-170.507 -603.338)"/><path class="d" d="M161.819,511.572c-1.124,1.405-1.339,3.1-.482,3.785s2.463.1,3.586-1.3,1.594-3.681,1.13-3.955c-.624-.368-3.111.068-4.235,1.473Zm0,0" transform="translate(-134.535 -509.971)"/></g></g><path class="e" d="M129.707,516.466c1.49,1.008,3.2,1.087,3.811.178s-.1-2.462-1.586-3.469-3.8-1.295-4.032-.811c-.318.652.316,3.1,1.806,4.1Zm0,0" transform="translate(-75.563 -1.727)"/><path class="d" d="M111.284,552.906a.833.833,0,0,1-.833-.833V539.714a.834.834,0,0,1,.833-.833h7.5v14.025Zm0,0" transform="translate(-61.77 -22.967)"/><path class="e" d="M177.177,539.714a.833.833,0,0,0-.833-.833h-7.221v14.025h7.221a.833.833,0,0,0,.833-.833Zm0,0" transform="translate(-108.362 -22.967)"/><path class="b" d="M32.666,584.134V558.559a.827.827,0,0,1,.825-.826H47.719v.31H33.491a.456.456,0,0,0-.516.516v25.575a.456.456,0,0,0,.516.516H84a.456.456,0,0,0,.516-.516V558.559a.455.455,0,0,0-.516-.516H69.777v-.31H84a.826.826,0,0,1,.826.826v25.575a.826.826,0,0,1-.826.826H33.491a.827.827,0,0,1-.825-.826Zm0,0" transform="translate(0 -37.938)"/></g></svg>