<svg xmlns="http://www.w3.org/2000/svg" width="36" height="35" viewBox="0 0 36 35"><defs><style>.a,.c{fill:#e0a84f;}.a{opacity:0;}.b{stroke:#000;stroke-width:0.3px;}.c{stroke:#fff;}.d{stroke:none;}.e{fill:none;}</style></defs><g transform="translate(0 1)"><rect class="a" width="34" height="34"/><path class="b" d="M180.891,388.04a1.592,1.592,0,0,0-1.3-.667H163.724l-.559-2.193a1.605,1.605,0,0,0-1.556-1.2h-1.749a.475.475,0,0,0,0,.951h1.749a.659.659,0,0,1,.635.494l4.2,16.359A1.6,1.6,0,0,0,168,402.989h10.233a.475.475,0,0,0,0-.95H168a.654.654,0,0,1-.635-.494l-.78-3.035h10.363a1.6,1.6,0,0,0,1.524-1.1l2.638-7.922A1.594,1.594,0,0,0,180.891,388.04Zm-3.943,9.519H166.34l-2.371-9.236h15.618a.659.659,0,0,1,.655.658.705.705,0,0,1-.033.206l-1.65,4.975h-6.291a.475.475,0,0,0,0,.95h5.968l-.667,2A.654.654,0,0,1,176.948,397.559Zm-8.81,6.79a2.173,2.173,0,1,0,2.173,2.173h0a2.178,2.178,0,0,0-2.168-2.172Zm0,3.395a594.834,594.834,0,1,1,.005-.005Zm9.054-3.395a2.178,2.178,0,1,0,.005,0Zm0,3.395a600.015,600.015,0,1,1,.005-.005Z" transform="translate(-154.12 -380.078)"/><g class="c" transform="translate(20)"><circle class="d" cx="7.5" cy="7.5" r="7.5"/><circle class="e" cx="7.5" cy="7.5" r="8"/></g><path d="M6.645-1.057H.807v-.814L3.891-5.3a7.328,7.328,0,0,0,.945-1.264A2.109,2.109,0,0,0,5.1-7.569a1.6,1.6,0,0,0-.422-1.144A1.476,1.476,0,0,0,3.549-9.16a1.749,1.749,0,0,0-1.313.48,1.835,1.835,0,0,0-.468,1.337H.636a2.628,2.628,0,0,1,.792-1.989,2.938,2.938,0,0,1,2.12-.759,2.823,2.823,0,0,1,1.964.652A2.223,2.223,0,0,1,6.235-7.7,5.1,5.1,0,0,1,4.558-4.57L2.172-1.981H6.645Z" transform="translate(23.917 12.876)"/></g></svg>